<svg viewBox="0 0 45 45" xmlns="http://www.w3.org/2000/svg">
  <g fill="currentColor" shape-rendering="crispEdges">
    <!-- Cross -->
    <rect x="21" y="6" width="3" height="6"/>
    <rect x="18" y="7" width="9" height="2"/>
    <!-- Crown body -->
    <rect x="9" y="13" width="3" height="13"/>
    <rect x="33" y="13" width="3" height="13"/>
    <rect x="12" y="10" width="3" height="3"/>
    <rect x="30" y="10" width="3" height="3"/>
    <rect x="15" y="13" width="3" height="3"/>
    <rect x="27" y="13" width="3" height="3"/>
    <rect x="18" y="10" width="3" height="3"/>
    <rect x="24" y="10" width="3" height="3"/>
    <rect x="21" y="11" width="3" height="2"/>
    <!-- Base -->
    <rect x="9" y="26" width="27" height="3"/>
    <rect x="11" y="29" width="4" height="4"/>
    <rect x="30" y="29" width="4" height="4"/>
    <rect x="15" y="30" width="15" height="3"/>
  </g>
</svg>
