<svg xmlns="http://www.w3.org/2000/svg" viewBox="0 0 45 45" fill="currentColor" stroke="currentColor" stroke-width="2.5" stroke-linecap="round" stroke-linejoin="round">
  <g>
    <!-- Crenellations -->
    <path d="M 9,7 L 9,12 M 11,10 L 14,10 M 14,10 L 14,12 M 18,10 L 21,10 M 21,10 L 21,12 M 24,10 L 27,10 M 27,10 L 27,12 M 31,10 L 34,10 M 34,10 L 34,12 M 36,7 L 36,12" fill="none" />
    <path d="M 9,12 L 36,12" fill="none" />
    <!-- Tower body -->
    <path d="M 11,12 L 11,27 L 34,27 L 34,12" />
    <!-- Base -->
    <path d="M 10,27 L 35,27 M 10,30 L 35,30" fill="none" />
    <path d="M 8,30 L 37,30 L 37,34 L 8,34 Z" />
  </g>
</svg>
