<svg viewBox="0 0 45 45" xmlns="http://www.w3.org/2000/svg">
  <defs>
    <filter id="neon-glow">
      <feGaussianBlur stdDeviation="2" result="coloredBlur"/>
      <feMerge>
        <feMergeNode in="coloredBlur"/>
        <feMergeNode in="SourceGraphic"/>
      </feMerge>
    </filter>
  </defs>
  <g fill="none" stroke="currentColor" stroke-width="2" stroke-linecap="round" filter="url(#neon-glow)">
    <!-- Cross on top -->
    <path d="M 22.5,11.63 L 22.5,6" />
    <path d="M 20,8 L 25,8" />
    <!-- Crown -->
    <path d="M 9,26 L 9,13 L 12,10 L 15,13 L 18,10 L 22.5,11 L 27,10 L 30,13 L 33,10 L 36,13 L 36,26" />
    <path d="M 9,26 C 9,28 9,28 9,28 L 11,30 L 15,30 L 15,33 L 30,33 L 30,30 L 34,30 L 36,28 C 36,28 36,28 36,26" />
    <circle cx="22.5" cy="8" r="1.5" fill="currentColor" />
    <circle cx="9" cy="13" r="1.5" fill="currentColor" />
    <circle cx="36" cy="13" r="1.5" fill="currentColor" />
  </g>
</svg>
