<svg viewBox="0 0 45 45" xmlns="http://www.w3.org/2000/svg">
  <defs>
    <pattern id="wood-grain-dark" patternUnits="userSpaceOnUse" width="4" height="4">
      <path d="M 0,2 L 4,2" stroke="currentColor" stroke-width="0.4" opacity="0.3"/>
      <path d="M 0,0 L 4,4" stroke="currentColor" stroke-width="0.3" opacity="0.2"/>
    </pattern>
  </defs>
  <g fill="url(#wood-grain-dark)" stroke="currentColor" stroke-width="2" stroke-linejoin="round">
    <circle cx="6" cy="12" r="2" />
    <circle cx="14" cy="9" r="2" />
    <circle cx="22.5" cy="8" r="2" />
    <circle cx="31" cy="9" r="2" />
    <circle cx="39" cy="12" r="2" />
    <path d="M 9,26 L 9,13 L 13,13 L 13,16 L 17,16 L 17,11 L 22.5,11 L 28,11 L 28,16 L 32,16 L 32,13 L 36,13 L 36,26 Z" />
    <path d="M 9,26 L 11,30 L 15,30 L 15,33 L 30,33 L 30,30 L 34,30 L 36,26 Z" />
  </g>
</svg>
