<svg viewBox="0 0 45 45" xmlns="http://www.w3.org/2000/svg">
  <defs>
    <linearGradient id="glass-gradient-dark" x1="0%" y1="0%" x2="0%" y2="100%">
      <stop offset="0%" style="stop-color:currentColor;stop-opacity:0.6" />
      <stop offset="100%" style="stop-color:currentColor;stop-opacity:0.9" />
    </linearGradient>
  </defs>
  <g fill="url(#glass-gradient-dark)" stroke="currentColor" stroke-width="1.5" opacity="0.9">
    <circle cx="6" cy="12" r="2" />
    <circle cx="14" cy="9" r="2" />
    <circle cx="22.5" cy="8" r="2" />
    <circle cx="31" cy="9" r="2" />
    <circle cx="39" cy="12" r="2" />
    <path d="M 9,26 L 9,13 L 13,13 L 13,16 L 17,16 L 17,11 L 22.5,11 L 28,11 L 28,16 L 32,16 L 32,13 L 36,13 L 36,26 Z" />
    <path d="M 9,26 L 11,30 L 15,30 L 15,33 L 30,33 L 30,30 L 34,30 L 36,26 Z" />
  </g>
</svg>
