<svg viewBox="0 0 45 45" xmlns="http://www.w3.org/2000/svg">
  <defs>
    <linearGradient id="glass-gradient" x1="0%" y1="0%" x2="0%" y2="100%">
      <stop offset="0%" style="stop-color:currentColor;stop-opacity:0.3" />
      <stop offset="100%" style="stop-color:currentColor;stop-opacity:0.7" />
    </linearGradient>
  </defs>
  <g fill="url(#glass-gradient)" stroke="currentColor" stroke-width="1.5" opacity="0.85">
    <path d="M 22.5,11.63 L 22.5,6" fill="none" />
    <path d="M 20,8 L 25,8" fill="none" />
    <path d="M 9,26 L 9,13 L 12,10 L 15,13 L 18,10 L 22.5,11 L 27,10 L 30,13 L 33,10 L 36,13 L 36,26" />
    <path d="M 9,26 C 9,28 9,28 9,28 L 11,30 L 15,30 L 15,33 L 30,33 L 30,30 L 34,30 L 36,28 C 36,28 36,28 36,26" />
    <circle cx="22.5" cy="8" r="1.5" fill="currentColor" />
    <circle cx="9" cy="13" r="1.5" fill="currentColor" />
    <circle cx="36" cy="13" r="1.5" fill="currentColor" />
  </g>
</svg>
