<svg width="45" height="45" viewBox="0 0 45 45" xmlns="http://www.w3.org/2000/svg">
  <g fill="none" stroke="currentColor" stroke-width="1.5" stroke-linecap="round" stroke-linejoin="round">
    <circle cx="6" cy="12" r="2" fill="currentColor"/>
    <circle cx="14" cy="9" r="2" fill="currentColor"/>
    <circle cx="22.5" cy="8" r="2" fill="currentColor"/>
    <circle cx="31" cy="9" r="2" fill="currentColor"/>
    <circle cx="39" cy="12" r="2" fill="currentColor"/>
    <path d="M 9,26 C 17,27 27,27 36,26 L 38,14 L 31,25 L 31,11 L 25.5,24.5 L 22.5,9.5 L 19.5,24.5 L 14,11 L 14,25 L 7,14 L 9,26 z"/>
    <path d="M 9,26 C 9,28 10.5,28 11.5,30 C 12.5,31.5 12.5,31 12,33.5 C 10.5,34.5 10,36 10,38 C 9,39 9,39 11,38.5 L 34,38.5 C 36,39 36,39 35,38 C 35,36 34.5,34.5 33,33.5 C 32.5,31 32.5,31.5 33.5,30 C 34.5,28 36,28 36,26" stroke-linecap="butt"/>
  </g>
</svg>
