<svg viewBox="0 0 45 45" xmlns="http://www.w3.org/2000/svg">
  <g fill="currentColor" stroke="currentColor" stroke-width="2" stroke-linecap="round">
    <!-- Sketchy cross -->
    <path d="M 22,11.5 Q 22.3,9 22.8,6.2" fill="none" />
    <path d="M 19.8,8.1 Q 21,7.9 25.2,7.8" fill="none" />
    <!-- Filled sketchy crown -->
    <path d="M 9.2,25.8 Q 9,19 9.1,13.2 L 11.9,10.1 Q 13,11.5 15.2,12.9 L 18.1,10.2 Q 20,10.5 22.6,11.1 L 27.2,10.1 L 30.1,13.1 L 32.9,10.2 L 35.8,12.9 Q 36,18 35.9,25.9 Z" />
    <path d="M 9.1,26.1 Q 9.5,27 10.9,29.8 L 14.8,30.1 L 15.1,32.9 L 29.9,33.1 L 30.2,30 L 33.8,29.9 Q 35,28 36.1,26 Z" />
  </g>
</svg>
