<svg viewBox="0 0 45 45" xmlns="http://www.w3.org/2000/svg">
  <g fill="none" stroke="currentColor" stroke-width="2" stroke-linecap="round">
    <!-- Sketchy balls -->
    <circle cx="6" cy="12" r="2" />
    <circle cx="14" cy="9" r="2" />
    <circle cx="22.5" cy="8" r="2" />
    <circle cx="31" cy="9" r="2" />
    <circle cx="39" cy="12" r="2" />
    <!-- Sketchy crown -->
    <path d="M 9.1,25.9 Q 9,19 9.2,13.1 L 13.1,13.2 L 13.2,15.9 L 17,16.1 L 17.1,11.2 L 22.4,11.1 L 27.9,11.2 L 28.1,16 L 31.9,16.1 L 32.1,13.2 L 35.9,13.1 Q 36,19 35.9,25.9" />
    <path d="M 9,26.1 Q 9.5,27 10.9,29.9 L 14.9,30.1 L 15.1,32.9 L 29.9,33.1 L 30.1,30 L 33.9,29.9 Q 35,28 36,26" />
  </g>
</svg>
